<?xml version="1.0" encoding="UTF-8" standalone="no"?>
<!-- Created with Inkscape (http://www.inkscape.org/) -->

<svg
   xmlns:dc="http://purl.org/dc/elements/1.1/"
   xmlns:cc="http://creativecommons.org/ns#"
   xmlns:rdf="http://www.w3.org/1999/02/22-rdf-syntax-ns#"
   xmlns:svg="http://www.w3.org/2000/svg"
   xmlns="http://www.w3.org/2000/svg"
   xmlns:sodipodi="http://sodipodi.sourceforge.net/DTD/sodipodi-0.dtd"
   xmlns:inkscape="http://www.inkscape.org/namespaces/inkscape"
   id="svg3080"
   version="1.1"
   inkscape:version="0.48.4 r9939"
   width="120"
   height="120"
   sodipodi:docname="alfabetico.svg"
   inkscape:export-filename="/home/diego/Imágenes/caafi/alfabetico.png"
   inkscape:export-xdpi="100"
   inkscape:export-ydpi="100">
  <metadata
     id="metadata3086">
    <rdf:RDF>
      <cc:Work
         rdf:about="">
        <dc:format>image/svg+xml</dc:format>
        <dc:type
           rdf:resource="http://purl.org/dc/dcmitype/StillImage" />
        <dc:title></dc:title>
      </cc:Work>
    </rdf:RDF>
  </metadata>
  <defs
     id="defs3084" />
  <sodipodi:namedview
     pagecolor="#ffffff"
     bordercolor="#666666"
     borderopacity="1"
     objecttolerance="10"
     gridtolerance="10"
     guidetolerance="10"
     inkscape:pageopacity="0"
     inkscape:pageshadow="2"
     inkscape:window-width="681"
     inkscape:window-height="717"
     id="namedview3082"
     showgrid="false"
     inkscape:zoom="1.0097656"
     inkscape:cx="207.81813"
     inkscape:cy="200.6693"
     inkscape:window-x="683"
     inkscape:window-y="0"
     inkscape:window-maximized="0"
     inkscape:current-layer="svg3080" />
  <g
     id="g3135"
     transform="matrix(0.23342556,0,0,0.23342556,-0.48640111,0.56304203)">
    <path
       style="fill:#8fdcb0"
       d="m 56.002687,299.12191 0,-138.72244 3.4,-3.4 3.4,-3.4 40.100003,0 40.1,0 0,-30.1 0,-30.100002 3.4,-3.4 3.4,-3.4 156.7,0 156.7,0 3.4,3.4 3.4,3.4 0,138.722442 c 0,110.84358 -0.25121,138.52187 -1.25,137.72441 -0.6875,-0.54893 -13.33278,-10.27903 -28.10062,-21.62245 l -26.85062,-20.6244 -15.39938,0 -15.39938,0 0,29.77749 c 0,32.58701 -0.006,32.62291 -6.01104,35.72822 -2.5205,1.3034 -19.61783,1.49429 -133.83868,1.49429 l -130.94904,0 -26.850622,20.6244 c -14.767842,11.34342 -27.413121,21.07352 -28.100621,21.62245 -0.998789,0.79746 -1.25,-26.88083 -1.25,-137.72441 z"
       id="path3104"
       inkscape:connector-curvature="0" />
    <path
       style="fill:#73dba0"
       d="m 56.002687,300.54386 c 0,-118.02631 0.202836,-137.49408 1.464011,-140.5125 2.624709,-6.28181 3.720499,-6.43189 46.962382,-6.43189 l 38.49063,0 0.29149,-30.47865 0.29149,-30.478648 2.77273,-2.771351 2.77272,-2.771353 157.45455,0 157.45455,0 2.77272,2.772623 2.77273,2.772624 0.26037,138.953415 0.26038,138.95342 -27.91391,-21.47604 -27.9139,-21.47604 -15.59647,0 -15.59647,0 0,28.95295 c 0,30.84469 -0.24267,32.61534 -4.90413,35.78303 -2.44246,1.65977 -10.39678,1.78055 -134.59587,2.04372 l -132,0.2797 -27.750003,21.44681 -27.75,21.44681 0,-137.00863 z"
       id="path3102"
       inkscape:connector-curvature="0" />
    <path
       style="fill:#5ed591"
       d="m 56.242236,298.6186 0.260451,-137.98088 3.268165,-3.26912 3.268166,-3.26913 39.981832,-0.29307 39.98184,-0.29307 0,-29.00659 c 0,-23.97163 0.26331,-29.515774 1.51693,-31.940006 3.29872,-6.379027 -7.87865,-5.967266 161.98307,-5.967266 136.23248,0 154.94782,0.180215 157.53273,1.516926 6.35578,3.286698 5.96727,-6.116829 5.96727,144.433416 0,75.37731 -0.25999,137.04966 -0.57776,137.04966 -0.31777,0 -12.80527,-9.44318 -27.75,-20.98484 l -27.17224,-20.98483 -15.75,-0.0152 -15.75,-0.0152 0,28.4349 c 0,15.6392 -0.42243,29.54598 -0.93874,30.90397 -0.51631,1.35799 -1.95116,3.41229 -3.18856,4.5651 l -2.24982,2.09603 -131.881,0 -131.881,0 -27.906843,21.5 c -15.34876,11.825 -28.14716,21.5 -28.440889,21.5 -0.293729,0 -0.416849,-62.09139 -0.273602,-137.98087 z"
       id="path3100"
       inkscape:connector-curvature="0" />
    <path
       style="fill:#2dca70"
       d="m 56.2422,299.12209 0.260487,-137.47738 2.772727,-2.77262 2.772728,-2.77262 157.396708,0 157.39671,0 2.71628,2.5 c 2.58707,2.38107 2.66085,2.39346 1.55092,0.26035 -2.8609,-5.49822 2.68102,-5.26035 -122.55641,-5.26035 l -115.54966,0 0,-28.53212 c 0,-32.334796 0.37142,-34.471644 6.43189,-37.003871 5.28332,-2.207511 308.8529,-2.207511 314.13622,0 6.8614,2.866876 6.46663,-6.395219 6.18545,145.124231 l -0.25356,136.63544 -28,-21.58258 -28,-21.58258 -15.19594,-0.0293 -15.19594,-0.0292 -0.30406,30.58337 -0.30406,30.58337 -3.26578,2.91663 -3.26577,2.91663 -131.73423,0.004 -131.73422,0.004 -27.884675,21.49634 c -15.336569,11.82299 -28.053789,21.49634 -28.260487,21.49634 -0.206698,0 -0.258596,-61.86482 -0.115328,-137.47738 z"
       id="path3098"
       inkscape:connector-curvature="0" />
    <path
       style="fill:#25b261"
       d="m 441.57473,348.14613 -27.92796,-21.54666 -15.32204,0 -15.32204,0 0,-83.1 0,-83.1 -3.4,-3.4 -3.4,-3.4 -116.65479,0 -116.6548,0 0.3048,-29.75 c 0.32234,-31.462845 0.42722,-32.175459 5.20286,-35.35193 1.77235,-1.178859 26.01352,-1.444171 154.60193,-1.692076 83.875,-0.161702 154.37275,-0.02759 156.66166,0.298026 5.44231,0.77421 9.06202,4.395597 9.82976,9.834315 0.32311,2.288912 0.45722,64.595165 0.29803,138.458325 l -0.28945,134.29667 -27.92796,-21.54667 z m -322.57204,-35.04666 0,-5.5 106,0 106,0 0,5.5 0,5.5 -106,0 -106,0 0,-5.5 z m 0,-37 0,-5.5 106,0 106,0 0,5.5 0,5.5 -106,0 -106,0 0,-5.5 z m 0,-37 0,-5.5 106,0 106,0 0,5.5 0,5.5 -106,0 -106,0 0,-5.5 z"
       id="path3096"
       inkscape:connector-curvature="0" />
    <path
       style="fill:#24a25a"
       d="m 119.00269,313.09947 0,-5.5 106,0 106,0 0,5.5 0,5.5 -106,0 -106,0 0,-5.5 z m 0,-37 0,-5.5 106,0 106,0 0,5.5 0,5.5 -106,0 -106,0 0,-5.5 z m 0,-37 0,-5.5 106,0 106,0 0,5.5 0,5.5 -106,0 -106,0 0,-5.5 z"
       id="path3094"
       inkscape:connector-curvature="0" />
    <path
       style="fill:#239d57"
       d="m 119.00269,313.09947 0,-5.5 106,0 106,0 0,5.5 0,5.5 -106,0 -106,0 0,-5.5 z"
       id="path3092"
       inkscape:connector-curvature="0" />
  </g>
</svg>
